<?xml version="1.0" encoding="UTF-8" standalone="no"?>
<!-- Created with Inkscape (http://www.inkscape.org/) -->

<svg
   xmlns:dc="http://purl.org/dc/elements/1.1/"
   xmlns:cc="http://creativecommons.org/ns#"
   xmlns:rdf="http://www.w3.org/1999/02/22-rdf-syntax-ns#"
   xmlns:svg="http://www.w3.org/2000/svg"
   xmlns="http://www.w3.org/2000/svg"
   xmlns:sodipodi="http://sodipodi.sourceforge.net/DTD/sodipodi-0.dtd"
   xmlns:inkscape="http://www.inkscape.org/namespaces/inkscape"
   width="290.51605mm"
   height="112.71583mm"
   viewBox="0 0 290.51605 112.71583"
   version="1.1"
   id="svg8"
   sodipodi:docname="full_logo.svg"
   inkscape:export-filename="/home/aaron/apps/goldi/src/full_logo.png"
   inkscape:export-xdpi="126.01065"
   inkscape:export-ydpi="126.01065"
   inkscape:version="0.92.5 (2060ec1f9f, 2020-04-08)">
  <defs
     id="defs2" />
  <sodipodi:namedview
     id="base"
     pagecolor="#ffffff"
     bordercolor="#666666"
     borderopacity="1.0"
     inkscape:pageopacity="0.0"
     inkscape:pageshadow="2"
     inkscape:zoom="1.7481313"
     inkscape:cx="870.12928"
     inkscape:cy="139.28454"
     inkscape:document-units="mm"
     inkscape:current-layer="layer1"
     showgrid="false"
     inkscape:window-width="2416"
     inkscape:window-height="1312"
     inkscape:window-x="144"
     inkscape:window-y="54"
     inkscape:window-maximized="1" />
  <metadata
     id="metadata5">
    <rdf:RDF>
      <cc:Work
         rdf:about="">
        <dc:format>image/svg+xml</dc:format>
        <dc:type
           rdf:resource="http://purl.org/dc/dcmitype/StillImage" />
      </cc:Work>
    </rdf:RDF>
  </metadata>
  <g
     inkscape:label="Layer 1"
     inkscape:groupmode="layer"
     id="layer1"
     transform="translate(1.1366471,-71.551382)">
    <circle
       style="opacity:1;fill:none;fill-opacity:1;stroke:#8aa5db;stroke-width:11;stroke-linecap:round;stroke-linejoin:round;stroke-miterlimit:4;stroke-dasharray:none;stroke-opacity:1"
       id="path815"
       cx="24.454813"
       cy="129.04524"
       r="20" />
    <circle
       style="opacity:1;fill:none;fill-opacity:1;stroke:#8aa5db;stroke-width:11;stroke-linecap:round;stroke-linejoin:round;stroke-miterlimit:4;stroke-dasharray:none;stroke-opacity:1"
       id="path815-3"
       cx="77.940247"
       cy="129.04524"
       r="20" />
    <path
       style="opacity:1;fill:none;fill-opacity:1;stroke:#8aa5db;stroke-width:11;stroke-linecap:round;stroke-linejoin:round;stroke-miterlimit:4;stroke-dasharray:none;stroke-opacity:1"
       d="m 151.42569,129.04524 c 0,11.04569 -8.95431,20 -20,20 -11.04569,0 -20,-8.95431 -20,-20"
       id="path815-6"
       inkscape:connector-curvature="0"
       sodipodi:nodetypes="csc" />
    <circle
       style="opacity:1;fill:none;fill-opacity:1;stroke:#8aa5db;stroke-width:11;stroke-linecap:round;stroke-linejoin:round;stroke-miterlimit:4;stroke-dasharray:none;stroke-opacity:1"
       id="path815-7"
       cx="184.91113"
       cy="129.04524"
       r="20" />
    <path
       style="fill:none;stroke:#8aa5db;stroke-width:11;stroke-linecap:round;stroke-linejoin:miter;stroke-miterlimit:4;stroke-dasharray:none;stroke-opacity:1"
       d="M 111.42569,129.04524 V 79.724879"
       id="path845"
       inkscape:connector-curvature="0" />
    <path
       style="opacity:1;fill:none;fill-opacity:1;stroke:#8aa5db;stroke-width:11;stroke-linecap:round;stroke-linejoin:round;stroke-miterlimit:4;stroke-dasharray:none;stroke-opacity:1"
       d="m 4.3639029,158.76721 c 0,11.04569 8.9543101,20 20.0000001,20 11.04569,0 20,-8.95431 20,-20"
       id="path815-6-5"
       inkscape:connector-curvature="0"
       sodipodi:nodetypes="csc" />
    <path
       style="fill:none;stroke:#8aa5db;stroke-width:11;stroke-linecap:round;stroke-linejoin:miter;stroke-miterlimit:4;stroke-dasharray:none;stroke-opacity:1"
       d="M 44.363903,159.6911 V 128.34136"
       id="path845-3"
       inkscape:connector-curvature="0" />
    <path
       style="fill:none;stroke:#8aa5db;stroke-width:11;stroke-linecap:round;stroke-linejoin:miter;stroke-miterlimit:4;stroke-dasharray:none;stroke-opacity:1"
       d="M 204.91135,127.2944 V 77.974042"
       id="path845-5"
       inkscape:connector-curvature="0" />
    <path
       style="fill:#d8d8d8;fill-opacity:1;stroke:#8aa5db;stroke-width:5.73999977;stroke-linecap:butt;stroke-linejoin:miter;stroke-miterlimit:4;stroke-dasharray:none;stroke-opacity:1"
       d="m 249.94789,74.421382 c -20.75122,0 -21.10973,3.697711 -21.10973,6.580787 0,2.883088 -0.43142,6.861316 1.66477,9.518378 2.09618,2.657056 7.99039,1.794807 11.943,5.747424 3.95262,3.952619 3.4504,7.279239 3.4504,19.137079 0,11.85783 0.19237,15.78594 -5.48309,24.10288 -5.67548,8.31696 -27.02748,5.4604 -27.02748,9.81582 0,4.35543 5.63246,4.34754 10.4744,4.34754 l 26.0871,-0.0982 26.08776,0.0982 c 4.84194,0 10.47439,0.009 10.47439,-4.34754 0,-4.35542 -20.28115,-0.96375 -25.95663,-9.28071 -5.67548,-8.31694 -5.37671,-12.67313 -5.37671,-24.53096 0,-11.85784 -0.3952,-15.612554 3.55743,-19.565175 3.95261,-3.952617 8.56255,-2.769302 10.65874,-5.426358 2.09619,-2.657062 1.66476,-6.63529 1.66476,-9.518378 0,-2.883076 -0.35788,-6.580787 -21.10911,-6.580787 z"
       id="path880"
       inkscape:connector-curvature="0"
       inkscape:export-filename="/home/aaron/apps/goldi/src/full_logo.png"
       inkscape:export-xdpi="126"
       inkscape:export-ydpi="126"
       sodipodi:nodetypes="sscsssscccscsccss" />
  </g>
</svg>
